<svg xmlns="http://www.w3.org/2000/svg" xmlns:xlink="http://www.w3.org/1999/xlink" xmlns:inkscape="http://www.inkscape.org/namespaces/inkscape" version="1.1" width="841.89" height="408.472" viewBox="0 0 841.89 408.472">
<defs>
<clipPath id="clip_0">
<path transform="matrix(1,0,0,-1,0,408.472)" d="M0 408.472H841.89V0H0Z"/>
</clipPath>
<clipPath id="clip_1">
<path transform="matrix(1,0,0,-1,0,408.472)" d="M436.376 223.593H663.815V305.509H436.376Z"/>
</clipPath>
<clipPath id="clip_2">
<path transform="matrix(1,0,0,-1,0,408.472)" d="M449.985 230.456H706.703V355.374H449.985Z"/>
</clipPath>
</defs>
<g>
<g inkscape:groupmode="layer" inkscape:label="Layer 1">
<path transform="matrix(1,0,0,-1,0,408.472)" d="M501.946 123.08H513.425V96.992008H501.946Z" fill="#626366"/>
<g clip-path="url(#clip_0)">
<path transform="matrix(1,0,0,-1,51.3364,330.5589)" d="M0 0C-1.993 .83-3.733 1.993-5.204 3.416-6.696 4.848-7.859 6.519-8.737 8.439-9.626 10.349-10.063 12.433-10.063 14.662V45.167C-10.063 46.751-9.492 48.113-8.366 49.229-7.278 50.345-5.915 50.915-4.304 50.915-2.795 50.915-1.46 50.345-.296 49.229 .862 48.113 1.433 46.751 1.433 45.167V14.662C1.433 13.45 1.885 12.433 2.807 11.544 3.706 10.682 4.789 10.24 5.974 10.24H77.741C79.341 10.24 80.704 9.687 81.819 8.561 82.928 7.444 83.489 6.082 83.489 4.493 83.489 2.893 82.928 1.541 81.819 .431 80.704-.685 79.341-1.244 77.741-1.244H6.329C4.099-1.244 1.977-.84 0 0" fill="#626366"/>
<path transform="matrix(1,0,0,-1,158.812,310.4447)" d="M0 0C.355-1.729 1.029-3.297 2.037-4.73 3.022-6.163 4.385-7.386 6.103-8.382 7.806-9.389 10.057-9.874 12.858-9.874H60.472C63.176-9.874 65.4-9.389 67.167-8.382 68.924-7.386 70.286-6.163 71.304-4.73 72.29-3.297 72.974-1.729 73.33 0 73.686 1.707 73.874 3.281 73.874 4.714V24.945C73.874 26.534 74.434 27.881 75.549 29.007 76.675 30.111 78.011 30.667 79.611 30.667 81.21 30.667 82.551 30.111 83.677 29.007 84.792 27.881 85.336 26.534 85.336 24.945V4.714C85.336 1.692 84.852-1.362 83.866-4.434 82.848-7.514 81.415-10.288 79.492-12.825 77.574-15.325 75.253-17.361 72.549-18.961 69.844-20.563 66.763-21.358 63.327-21.358H8.792C5.521-21.19 2.607-20.313 .06-18.676-2.489-17.045-4.66-14.991-6.458-12.515-8.264-10.041-9.626-7.3-10.596-4.267-11.543-1.224-12.018 1.766-12.018 4.714V24.945C-12.018 26.534-11.463 27.881-10.337 29.007-9.233 30.111-7.88 30.667-6.281 30.667-4.697 30.667-3.334 30.111-2.219 29.007-1.104 27.881-.533 26.534-.533 24.945V4.714C-.533 3.281-.371 1.707 0 0" fill="#626366"/>
<path transform="matrix(1,0,0,-1,357.0918,326.06568)" d="M0 0C0-1.601-.56-2.952-1.686-4.063-2.795-5.178-4.148-5.737-5.737-5.737-7.347-5.737-8.688-5.178-9.804-4.063-10.93-2.952-11.485-1.601-11.485 0V26.083C-11.485 29.356-11.684 30.99-12.087 30.99-12.384 30.99-13.51 29.911-15.433 27.741L-41.742-2.146C-42.781-3.34-44.063-4.239-45.577-4.848-47.096-5.441-48.733-5.737-50.484-5.737-52.24-5.737-53.872-5.441-55.38-4.848-56.91-4.239-58.192-3.34-59.211-2.146L-85.535 27.741C-87.373 29.911-88.498 30.99-88.886 30.99-89.279 30.99-89.479 29.356-89.479 26.083V0C-89.479-1.601-90.05-2.952-91.148-4.063-92.275-5.178-93.626-5.737-95.215-5.737-96.827-5.737-98.178-5.178-99.293-4.063-100.408-2.952-100.953-1.601-100.953 0V34.927C-100.953 38.127-100.053 40.836-98.227 43.065-96.39 45.308-93.874 46.422-90.675 46.422-88.768 46.422-87.06 45.921-85.535 44.983-84.027 44.036-82.632 42.866-81.35 41.515L-53.84 10.169C-53.437 9.787-52.94 9.352-52.332 8.914-51.74 8.483-51.125 8.263-50.484 8.263-49.859 8.263-49.229 8.483-48.626 8.914-48.033 9.352-47.533 9.787-47.134 10.169L-19.742 41.515H-19.613C-18.514 43.018-17.151 44.229-15.551 45.091-13.962 45.97-12.207 46.422-10.289 46.422-7.1 46.422-4.589 45.308-2.752 43.065-.926 40.836 0 38.127 0 34.927Z" fill="#626366"/>
<path transform="matrix(1,0,0,-1,378.8599,330.12818)" d="M0 0C-1.116-1.115-2.479-1.675-4.051-1.675-5.662-1.675-7.014-1.115-8.139 0-9.244 1.11-9.809 2.462-9.809 4.063V44.736C-9.809 46.32-9.244 47.683-8.139 48.799-7.014 49.914-5.662 50.484-4.051 50.484-2.479 50.484-1.116 49.914 0 48.799 1.125 47.683 1.686 46.32 1.686 44.736V4.063C1.686 2.462 1.125 1.11 0 0" fill="#626366"/>
<path transform="matrix(1,0,0,-1,465.4668,320.3187)" d="M0 0C2.688 0 4.93 .485 6.696 1.492 8.437 2.488 9.826 3.711 10.806 5.144 11.813 6.577 12.503 8.145 12.858 9.874 13.214 11.581 13.392 13.155 13.392 14.588 13.392 16.024 13.214 17.599 12.858 19.316 12.503 21.035 11.813 22.603 10.806 24.036 9.826 25.479 8.437 26.691 6.696 27.699 4.93 28.689 2.688 29.18 0 29.18H-67.242C-68.831 29.18-70.184 29.733-71.309 30.859-72.408 31.976-72.979 33.338-72.979 34.927-72.979 36.511-72.408 37.873-71.309 38.989-70.184 40.104-68.831 40.675-67.242 40.675H2.5C5.926 40.675 9.019 39.878 11.711 38.289 14.421 36.679 16.759 34.643 18.654 32.116 20.572 29.605 22.021 26.81 23.028 23.739 24.02 20.668 24.531 17.626 24.531 14.588 24.531 11.64 24.036 8.65 23.071 5.607 22.124 2.574 20.761-.167 18.962-2.641 17.162-5.117 14.98-7.171 12.434-8.802 9.885-10.439 6.981-11.316 3.695-11.484H-67.242C-68.831-11.484-70.184-10.925-71.309-9.81-72.408-8.699-72.979-7.348-72.979-5.747V34.395C-72.979 36.005-72.408 37.356-71.309 38.482-70.184 39.583-68.831 40.151-67.242 40.151-65.642 40.151-64.301 39.583-63.175 38.482-62.049 37.356-61.505 36.005-61.505 34.395V0Z" fill="#626366"/>
<path transform="matrix(1,0,0,-1,516.5332,331.8031)" d="M0 0C-1.756 0-3.507 .382-5.252 1.142-7.029 1.896-8.559 2.941-9.923 4.304-11.269 5.656-12.395 7.288-13.272 9.211-14.15 11.117-14.587 13.289-14.587 15.67V26.428C-14.587 28.588-13.973 30.02-12.729 30.752-11.495 31.453-9.578 31.82-6.943 31.82H73.33C74.93 31.82 76.282 31.254 77.408 30.139 78.512 29.023 79.065 27.661 79.065 26.072 79.065 24.488 78.512 23.124 77.408 22.011 76.282 20.895 74.93 20.323 73.33 20.323H-3.108V14.458C-3.108 13.677-2.773 12.977-2.101 12.361-1.411 11.78-.512 11.484 .593 11.484H75.964C77.553 11.484 78.899 10.931 80.025 9.805 81.151 8.688 81.711 7.326 81.711 5.737 81.711 4.137 81.151 2.785 80.025 1.675 78.899 .56 77.553 0 75.964 0ZM-14.587 46.411C-14.587 47.995-14.032 49.357-12.918 50.474-11.791 51.589-10.429 52.159-8.855 52.159H75.964C77.553 52.159 78.899 51.589 80.025 50.474 81.151 49.357 81.711 47.995 81.711 46.411 81.711 44.822 81.151 43.46 80.025 42.344 78.899 41.218 77.553 40.664 75.964 40.664H-8.855C-10.429 40.664-11.791 41.218-12.918 42.344-14.032 43.46-14.587 44.822-14.587 46.411" fill="#626366"/>
<path transform="matrix(1,0,0,-1,693.335,281.32939)" d="M0 0C1.128 1.115 2.474 1.686 4.073 1.686 5.674 1.686 7.014 1.115 8.14 0 9.244-1.116 9.81-2.479 9.81-4.063V-38.881C9.81-42.141 8.711-44.903 6.529-47.128 4.326-49.36 1.611-50.474-1.675-50.474-2.801-50.474-3.877-50.306-4.953-50.001-6.032-49.678-7.007-49.252-7.88-48.696L-62.668-15.189C-64.198-14.303-65.443-13.601-66.449-13.096-67.446-12.573-68.259-12.325-68.9-12.325-70.085-12.325-70.834-13.068-71.163-14.589-71.485-16.106-71.653-18.299-71.653-21.165V-44.736C-71.653-46.337-72.198-47.688-73.323-48.799-74.449-49.914-75.784-50.474-77.385-50.474-78.984-50.474-80.347-49.914-81.451-48.799-82.577-47.688-83.133-46.337-83.133-44.736V-9.928C-83.133-6.659-82.044-3.9-79.842-1.671-77.649 .571-74.922 1.686-71.653 1.686-70.527 1.686-69.424 1.519-68.356 1.185-67.289 .889-66.293 .453-65.431-.108L-10.643-33.608C-9.113-34.486-7.869-35.186-6.872-35.703-5.881-36.215-5.062-36.474-4.422-36.474-3.214-36.474-2.478-35.72-2.147-34.213-1.835-32.683-1.675-30.489-1.675-27.623V-4.063C-1.675-2.479-1.114-1.116 0 0" fill="#626366"/>
<path transform="matrix(1,0,0,-1,807.2227,281.32939)" d="M0 0C1.125-1.116 1.68-2.479 1.68-4.063 1.68-5.651 1.125-7.014 0-8.13-1.116-9.256-2.479-9.81-4.057-9.81H-39.479V-44.736C-39.479-46.337-40.033-47.688-41.149-48.799-42.275-49.914-43.628-50.474-45.227-50.474-46.801-50.474-48.174-49.914-49.279-48.799-50.404-47.688-50.959-46.337-50.959-44.736V-9.81H-86.845C-88.277-9.647-89.512-9.028-90.54-7.962-91.586-6.873-92.108-5.57-92.108-4.063-92.108-2.479-91.548-1.116-90.438 0-89.322 1.115-87.972 1.686-86.371 1.686H-4.057C-2.479 1.686-1.116 1.115 0 0" fill="#626366"/>
<path transform="matrix(1,0,0,-1,449.792,116.80698)" d="M0 0C-19.149-21.045-24.456-45.318-25.404-69.397-1.767-69.397 91.166-71.261 128.897-69.839 165.076-68.477 176.868-61.307 176.868-61.307 176.868-61.307 147.332-91.963 84.001-92.149 20.669-92.34-47.403-100.306-74.703-121.729-76.222-80.963-60.864-21.994 0 0" fill="#e41b23"/>
<g opacity=".25">
<g clip-path="url(#clip_1)">
<path transform="matrix(1,0,0,-1,436.376,134.62039)" d="M0 0C0 0 4.471 8.807 12.637 17.738 26.534 24.876 69.37 25.398 112.415 25.398 155.454 25.398 215.559 24.45 227.319 31.658 229.215 3.781 208.358-30.915 190.156-43.051 183.708-47.031 169.104-49.688 161.903-50.259 167.779-39.642 171.475-12.147 171.475 .56 137.728 1.035 0 0 0 0" fill="#e41b23"/>
</g>
</g>
<g opacity=".449997">
<g clip-path="url(#clip_2)">
<path transform="matrix(1,0,0,-1,449.9854,116.7103)" d="M0 0C21.612 20.384 43.041 29.375 93.288 29.104 127.605 28.917 217.107 34.411 256.042 63.612 259.323 41.36 253.317-33.506 176.959-61.306 194.406-49.358 215.642-17.22 214.505 13.877 206.063 8.279 169.51 7.074 102.769 7.488 36.173 7.902 10.482 5.059 0 0" fill="#e41b23"/>
</g>
</g>
</g>
</g>
</g>
</svg>
