<svg width="512" height="512" viewBox="0 0 512 512" fill="none" xmlns="http://www.w3.org/2000/svg">
  <path d="M0 179C0 160.222 15.2223 145 34 145H117.877C145.4 145 172.629 139.247 197.805 128.111L218.544 118.936C242.798 108.207 270.448 108.207 294.702 118.936L315.441 128.111C340.617 139.247 367.846 145 395.369 145H478C496.778 145 512 160.222 512 179V237H0V179Z" fill="#FF565B"/>
  <path d="M256 111V237H512V179C512 160.222 496.778 145 478 145H395.369C367.846 145 340.617 139.247 315.441 128.111L294.702 118.936L256 111Z" fill="#FF2A2F"/>
  <rect y="275" width="512" height="168" rx="84" fill="#FF3B40"/>
  <path d="M256 275H512V359C512 405.392 474.392 443 428 443H256V275Z" fill="#FF2A2F"/>
  <rect x="42" y="175" width="76" height="160" rx="38" fill="#FAF1D4"/>
  <rect x="118" y="175" width="76" height="160" rx="38" fill="#F6EAC1"/>
  <rect x="194" y="175" width="76" height="160" rx="38" fill="#FAF1D4"/>
  <rect x="270" y="175" width="76" height="160" rx="38" fill="#F6EAC1"/>
  <rect x="346" y="175" width="76" height="160" rx="38" fill="#FAF1D4"/>
  <rect x="422" y="175" width="48" height="160" rx="24" fill="#EFE0AB"/>
</svg>
