<svg width="512" height="512" viewBox="0 0 512 512" fill="none" xmlns="http://www.w3.org/2000/svg">
  <path d="M0 210C0 191.222 15.2223 176 34 176H126.736C148.264 176 169.493 170.894 188.67 161.108L216.451 146.932C241.589 134.106 271.344 134.106 296.482 146.932L324.263 161.108C343.44 170.894 364.669 176 386.197 176H478C496.778 176 512 191.222 512 210V271H0V210Z" fill="#FF565B"/>
  <path d="M256 136L296.482 146.932C271.344 134.106 241.589 134.106 216.451 146.932L256 136Z" fill="#FF2A2F"/>
  <path d="M256 136V271H512V210C512 191.222 496.778 176 478 176H386.197C364.669 176 343.44 170.894 324.263 161.108L296.482 146.932L256 136Z" fill="#FF2A2F"/>
  <rect x="20" y="239" width="111" height="133" rx="37" fill="#F6EAC1"/>
  <rect x="137" y="239" width="111" height="133" rx="37" fill="#FAF1D4"/>
  <rect x="254" y="239" width="111" height="133" rx="37" fill="#F6EAC1"/>
  <rect x="371" y="239" width="111" height="133" rx="37" fill="#EFE0AB"/>
  <rect y="271" width="512" height="29" rx="14.5" fill="#4A4F88"/>
  <rect x="63" y="248" width="32" height="62" rx="16" fill="#7080B4"/>
  <rect x="180" y="248" width="32" height="62" rx="16" fill="#7080B4"/>
  <rect x="297" y="248" width="32" height="62" rx="16" fill="#7080B4"/>
  <rect x="414" y="248" width="32" height="62" rx="16" fill="#7080B4"/>
</svg>
