<svg width="512" height="512" viewBox="0 0 512 512" fill="none" xmlns="http://www.w3.org/2000/svg">
  <circle cx="256" cy="287" r="177" fill="#F8C4CF"/>
  <circle cx="256" cy="109" r="62" fill="#F9D7DC"/>
  <path d="M214 108C214 90.3269 228.327 76 246 76H298C333.346 76 362 104.654 362 140C362 157.673 347.673 172 330 172H246C228.327 172 214 157.673 214 140V108Z" fill="#F9D7DC"/>
  <path d="M253 140C253 126.745 263.745 116 277 116H358C371.255 116 382 126.745 382 140C382 166.51 360.51 188 334 188H277C263.745 188 253 177.255 253 164V140Z" fill="#F49BC4"/>
  <circle cx="62" cy="255" r="47" fill="#F8C4CF"/>
  <circle cx="450" cy="255" r="47" fill="#F8C4CF"/>
  <path d="M143 274C143 212.144 193.144 162 255 162C316.856 162 367 212.144 367 274C367 335.856 316.856 386 255 386C193.144 386 143 335.856 143 274Z" fill="#F49BC4"/>
  <path d="M159 273H351C347.065 327.045 309.341 370 255 370C200.659 370 162.935 327.045 159 273Z" fill="#F7A3CD"/>
  <path d="M189 272H324V300C324 331.48 298.48 357 267 357H246C214.52 357 189 331.48 189 300V272Z" fill="#FF4A4F"/>
  <path d="M225 272H290V309C290 333.301 270.301 353 246 353C234.402 353 225 343.598 225 332V272Z" fill="#FF6A6F"/>
  <rect x="134" y="271" width="62" height="31" rx="15.5" fill="#F381B9"/>
  <rect x="228" y="145" width="95" height="20" rx="10" fill="#F381B9"/>
  <rect x="290" y="321" width="36" height="22" rx="11" fill="#F381B9"/>
</svg>
